<svg xmlns="http://www.w3.org/2000/svg" width="81" height="27" viewBox="0 0 81 27"><path fill="#ef402b" fill-rule="evenodd" d="M62.62 1h18.079v3.856l-11.87 16.83H81V26H62v-3.35L74.3 5.298H62.62V1zM41.615 1h18.082v3.856L47.83 21.686H60V26H41v-3.35L53.298 5.298H41.616V1zM19 1h4.97v14.794c0 1.9.443 3.323 1.332 4.271.885.945 2.092 1.42 3.614 1.42.98 0 1.843-.193 2.599-.574.756-.376 1.362-.998 1.818-1.857.455-.858.684-1.945.684-3.26V1H39v15.509c0 3.042-.843 5.389-2.517 7.029C34.805 25.178 32.35 26 29.116 26c-1.865 0-3.603-.295-5.212-.88-.859-.313-1.57-.731-2.138-1.243-.79-.715-1.447-1.63-1.976-2.744-.526-1.113-.79-2.611-.79-4.494V1zM0 1h16v4.312H5.164v6.538h10.832v4.313H5.164V26H0V1z"></path></svg>